<svg xmlns="http://www.w3.org/2000/svg" xmlns:svg="http://www.w3.org/2000/svg" xmlns:xlink="http://www.w3.org/1999/xlink" id="svg2160" width="32" height="32" version="1.0"><defs id="defs2162"><linearGradient id="linearGradient4102"><stop style="stop-color:#fff;stop-opacity:1" id="stop4104" offset="0"/><stop style="stop-color:#fff;stop-opacity:0" id="stop4106" offset="1"/></linearGradient><linearGradient id="linearGradient4090"><stop style="stop-color:#fff;stop-opacity:1" id="stop4092" offset="0"/><stop style="stop-color:#fff;stop-opacity:0" id="stop4094" offset="1"/></linearGradient><linearGradient id="linearGradient3926"><stop style="stop-color:#000;stop-opacity:1" id="stop3928" offset="0"/><stop style="stop-color:#000;stop-opacity:0" id="stop3930" offset="1"/></linearGradient><linearGradient id="linearGradient3832"><stop style="stop-color:#fff;stop-opacity:1" id="stop3834" offset="0"/><stop id="stop3840" offset=".674" style="stop-color:#fff;stop-opacity:1"/><stop style="stop-color:#eeeeec;stop-opacity:1" id="stop3836" offset="1"/></linearGradient><linearGradient id="linearGradient3357"><stop style="stop-color:#f57900;stop-opacity:1" id="stop3359" offset="0"/><stop style="stop-color:#fcaf3e;stop-opacity:1" id="stop3362" offset="1"/></linearGradient><linearGradient id="linearGradient3351"><stop style="stop-color:#fff;stop-opacity:1" id="stop3353" offset="0"/><stop style="stop-color:#fff;stop-opacity:0" id="stop3355" offset="1"/></linearGradient><linearGradient id="linearGradient3253"><stop style="stop-color:#888a85;stop-opacity:1" id="stop3255" offset="0"/><stop style="stop-color:#d3d7cf;stop-opacity:1" id="stop3257" offset="1"/></linearGradient><linearGradient id="linearGradient3363"><stop style="stop-color:#fff;stop-opacity:1" id="stop3365" offset="0"/><stop style="stop-color:#eeeeec;stop-opacity:0" id="stop3367" offset="1"/></linearGradient><linearGradient id="linearGradient3860"><stop style="stop-color:#888a85;stop-opacity:1" id="stop3862" offset="0"/><stop style="stop-color:#555753;stop-opacity:1" id="stop3864" offset="1"/></linearGradient><linearGradient id="linearGradient3844"><stop style="stop-color:#eeeeec;stop-opacity:1" id="stop3846" offset="0"/><stop style="stop-color:#eeeeec;stop-opacity:0" id="stop3848" offset="1"/></linearGradient><linearGradient id="linearGradient3850" x1="15.47" x2="43" y1="-4.5" y2="-4.5" gradientTransform="matrix(0.7567568,0,0,1,-2.540541,3)" gradientUnits="userSpaceOnUse" xlink:href="#linearGradient3844"/><linearGradient id="linearGradient3866" x1="26.357" x2="29" y1="2.571" y2="10.571" gradientTransform="translate(-5,-2)" gradientUnits="userSpaceOnUse" xlink:href="#linearGradient3860"/><radialGradient id="radialGradient3249" cx="20.261" cy="13.527" r="18.5" fx="20.261" fy="13.527" gradientTransform="matrix(0.7086309,0,0,0.5043875,1.6426043,5.6668314)" gradientUnits="userSpaceOnUse" xlink:href="#linearGradient3832"/><linearGradient id="linearGradient3316" x1="24.857" x2="25.5" y1="39.5" y2="40" gradientTransform="translate(-8,-14)" gradientUnits="userSpaceOnUse" xlink:href="#linearGradient3363"/><linearGradient id="linearGradient3324" x1="-25.942" x2="-25.942" y1="42.407" y2="45" gradientTransform="translate(8,-15)" gradientUnits="userSpaceOnUse" xlink:href="#linearGradient3253"/><linearGradient id="linearGradient2570" x1="26.5" x2="21" y1="40.304" y2="15.5" gradientTransform="matrix(1,0,0,0.9047619,-5,-1.5238096)" gradientUnits="userSpaceOnUse" xlink:href="#linearGradient3351"/><linearGradient id="linearGradient3688"><stop id="stop3690" offset="0" style="stop-color:black;stop-opacity:1"/><stop id="stop3692" offset="1" style="stop-color:black;stop-opacity:0"/></linearGradient><linearGradient id="linearGradient3702"><stop id="stop3704" offset="0" style="stop-color:black;stop-opacity:0"/><stop style="stop-color:black;stop-opacity:1" id="stop3710" offset=".5"/><stop id="stop3706" offset="1" style="stop-color:black;stop-opacity:0"/></linearGradient><radialGradient id="radialGradient4024" cx="4.993" cy="43.5" r="2.5" fx="4.993" fy="43.5" gradientTransform="matrix(2.003784,0,0,1.4,27.98813,-17.4)" gradientUnits="userSpaceOnUse" xlink:href="#linearGradient3688"/><radialGradient id="radialGradient4026" cx="4.993" cy="43.5" r="2.5" fx="4.993" fy="43.5" gradientTransform="matrix(2.003784,0,0,1.4,-20.01187,-104.4)" gradientUnits="userSpaceOnUse" xlink:href="#linearGradient3688"/><linearGradient id="linearGradient4028" x1="25.058" x2="25.058" y1="47.028" y2="39.999" gradientUnits="userSpaceOnUse" xlink:href="#linearGradient3702"/><radialGradient id="radialGradient4036" cx="24.5" cy="43" r="9.5" fx="24.5" fy="43" gradientTransform="matrix(1,0,0,0.3157895,0,29.421053)" gradientUnits="userSpaceOnUse" xlink:href="#linearGradient3926"/><linearGradient id="linearGradient4118" x1="58.438" x2="61.813" y1="9.75" y2="20.5" gradientUnits="userSpaceOnUse" xlink:href="#linearGradient4090"/><linearGradient id="linearGradient4120" x1="63.419" x2="61.452" y1="10.809" y2="3.694" gradientUnits="userSpaceOnUse" xlink:href="#linearGradient4102"/><linearGradient id="linearGradient4140" x1="62.225" x2="57.575" y1="18" y2="11.851" gradientUnits="userSpaceOnUse" xlink:href="#linearGradient3357"/></defs><metadata id="metadata2165"/><g id="layer1"><path style="opacity:.2837838;fill:url(#radialGradient4036);fill-opacity:1;stroke:none;stroke-width:1;stroke-linecap:round;stroke-linejoin:round;stroke-miterlimit:4;stroke-dasharray:none;stroke-dashoffset:0;stroke-opacity:1" id="path3994" d="M 34,43 A 9.5,3 0 1 1 15,43 A 9.5,3 0 1 1 34,43 z" transform="matrix(1,0,0,0.8333338,-7,-6.8333548)"/><g id="g3996" transform="matrix(0.7999997,0,0,0.4444451,-3.2000002,11.111095)" style="opacity:.13963964;display:inline"><g style="opacity:.4" id="g3998" transform="matrix(1.052632,0,0,1.285713,-1.263158,-13.42854)"><rect style="opacity:1;fill:url(#radialGradient4024);fill-opacity:1;stroke:none;stroke-width:1;stroke-linecap:round;stroke-linejoin:miter;stroke-miterlimit:4;stroke-dasharray:none;stroke-opacity:1" id="rect4000" width="5" height="7" x="38" y="40"/><rect style="opacity:1;fill:url(#radialGradient4026);fill-opacity:1;stroke:none;stroke-width:1;stroke-linecap:round;stroke-linejoin:miter;stroke-miterlimit:4;stroke-dasharray:none;stroke-opacity:1" id="rect4002" width="5" height="7" x="-10" y="-47" transform="scale(-1,-1)"/><rect style="opacity:1;fill:url(#linearGradient4028);fill-opacity:1;stroke:none;stroke-width:1;stroke-linecap:round;stroke-linejoin:miter;stroke-miterlimit:4;stroke-dasharray:none;stroke-opacity:1" id="rect4004" width="28" height="7" x="10" y="40"/></g></g><path style="fill:#d3d7cf;fill-rule:evenodd;stroke:#888a85;stroke-width:3;stroke-linecap:round;stroke-linejoin:miter;stroke-miterlimit:4;stroke-dasharray:none;stroke-opacity:1" id="path3405" d="M 12.5,29.5 L 17.5,26"/><path style="fill:#d3d7cf;fill-rule:evenodd;stroke:#888a85;stroke-width:3;stroke-linecap:round;stroke-linejoin:miter;stroke-miterlimit:4;stroke-dasharray:none;stroke-opacity:1" id="path3407" d="M 22.5,29.5 L 17.5,26"/><rect style="fill:url(#linearGradient3324);fill-opacity:1;stroke:#888a85;stroke-width:.99999994;stroke-miterlimit:4;stroke-dasharray:none;stroke-opacity:1" id="rect3251" width="2" height="9" x="-18.5" y="20.5" rx="1" ry="1" transform="scale(-1,1)"/><path style="fill:#d3d7cf;fill-rule:evenodd;stroke:#d3d7cf;stroke-width:1px;stroke-linecap:round;stroke-linejoin:miter;stroke-opacity:1" id="path3401" d="M 12.5,29.5 L 17.5,26"/><rect id="rect3310" width="2" height="12.889" x="-18.5" y="13.611" rx="1" ry="1.432" transform="scale(-1,1)" style="opacity:1;fill:#d3d7cf;fill-opacity:1;stroke:#999;stroke-width:.99999994;stroke-miterlimit:4;stroke-dasharray:none;stroke-opacity:1"/><path style="fill:#d3d7cf;fill-rule:evenodd;stroke:#d3d7cf;stroke-width:1px;stroke-linecap:round;stroke-linejoin:miter;stroke-opacity:1" id="path3403" d="M 22.5,29.5 L 17.5,26"/><rect style="fill:#d3d7cf;fill-opacity:1;stroke:#777974;stroke-width:1;stroke-miterlimit:4;stroke-dasharray:none;stroke-opacity:1" id="rect3883" width="4" height="3" x="15.5" y="24.5" rx="1.5" ry="1.5"/><path style="fill:#fff;fill-opacity:1;stroke:none;stroke-width:1.58113861;stroke-miterlimit:4;stroke-dasharray:none;stroke-opacity:1" id="path4001" d="M 21.428572,44.67857 A 1.25,0.96428573 0 1 1 18.928572,44.67857 A 1.25,0.96428573 0 1 1 21.428572,44.67857 z" transform="matrix(0.4,0,0,0.5185187,14.42857,6.333325)"/><path style="fill:#fff;fill-opacity:1;stroke:none;stroke-width:1.58113861;stroke-miterlimit:4;stroke-dasharray:none;stroke-opacity:1" id="path4005" d="M 21.428572,44.67857 A 1.25,0.96428573 0 1 1 18.928572,44.67857 A 1.25,0.96428573 0 1 1 21.428572,44.67857 z" transform="matrix(0.4,0,0,0.5185187,4.428571,6.333326)"/><rect style="fill:url(#linearGradient3316);fill-opacity:1;stroke:none" id="rect3361" width="3" height="2" x="16" y="25" rx="1.125" ry="1"/><rect style="opacity:.11711713;fill:#000;fill-opacity:1;stroke:none;stroke-width:3;stroke-linecap:round;stroke-linejoin:miter;stroke-miterlimit:4;stroke-dasharray:none;stroke-dashoffset:0;stroke-opacity:1" id="rect3411" width="3" height="2" x="16" y="22"/><rect style="opacity:1;fill:url(#radialGradient3249);fill-opacity:1;stroke:#babdb6;stroke-width:.99999994000000003;stroke-miterlimit:4;stroke-dasharray:none;stroke-opacity:1" id="rect2168" width="29" height="20" x="1.5" y="2.5" rx="1.02" ry=".96"/><path style="fill:url(#linearGradient2570);fill-opacity:1;stroke:none;stroke-width:1;stroke-miterlimit:4;stroke-opacity:1" id="rect3349" d="M 2.991223,3 L 28.00878,3 C 28.55791,3 29,3.4114101 29,3.9224441 L 29,21.077556 C 29,21.58859 28.55791,22 28.00878,22 L 2.991223,22 C 2.442085,22 2,21.58859 2,21.077556 L 2,3.9224441 C 2,3.4114101 2.442085,3 2.991223,3 z"/><path style="fill:none;fill-opacity:1;stroke:#fff;stroke-width:1;stroke-miterlimit:4;stroke-opacity:1" id="path3151" d="M 3.40625,3.5000001 C 2.876679,3.5000001 2.5,3.7197986 2.5,4.0288109 L 2.5,20.908152 C 2.5,21.217165 2.876679,21.436963 3.40625,21.436963 L 28.59375,21.436963 C 29.12332,21.436963 29.5,21.217164 29.5,20.908152 L 29.5,4.0288109 C 29.5,3.7197989 29.12332,3.5000001 28.59375,3.5000001 L 3.40625,3.5000001 z"/><rect style="opacity:.11711713;fill:#000;fill-opacity:1;stroke:none;stroke-width:.80000001;stroke-linecap:round;stroke-linejoin:round;stroke-miterlimit:4;stroke-dasharray:none;stroke-dashoffset:0;stroke-opacity:1" id="rect3285" width="29" height="2" x="1" y="3"/><rect style="opacity:1;fill:#babdb6;fill-opacity:1;stroke:url(#linearGradient3866);stroke-width:.99999982;stroke-miterlimit:4;stroke-dasharray:none;stroke-opacity:1" id="rect3827" width="31" height="3" x=".5" y=".5" rx="1.583" ry="1.5"/><rect style="opacity:1;fill:url(#linearGradient3850);fill-opacity:1;stroke:none;stroke-width:1;stroke-miterlimit:4;stroke-dasharray:none;stroke-opacity:1" id="rect3842" width="28" height="1" x="2" y="-2" rx=".378" ry=".5" transform="scale(1,-1)"/><rect style="opacity:1;fill:#fff;fill-opacity:1;stroke:none;stroke-width:1;stroke-miterlimit:4;stroke-dasharray:none;stroke-opacity:1" id="rect4202" width="2" height="2" x="1" y="29" rx="1" ry="1" transform="matrix(7.3523171e-8,1,1,-1.8380787e-8,0,0)"/><rect style="opacity:1;fill:#fff;fill-opacity:1;stroke:none;stroke-width:1;stroke-miterlimit:4;stroke-dasharray:none;stroke-opacity:1" id="rect3409" width="2" height="2" x="1" y="1" rx="1" ry="1" transform="matrix(7.3523171e-8,1,1,-1.8380787e-8,0,0)"/><path style="fill:#888a85;fill-rule:evenodd;stroke:none;stroke-width:1px;stroke-linecap:butt;stroke-linejoin:miter;stroke-opacity:1" id="path5208" d="M 13,7.03923 L 13,17 L 22,12 L 13,7.03923 z"/></g></svg>