<svg xmlns="http://www.w3.org/2000/svg" xmlns:cc="http://web.resource.org/cc/" xmlns:svg="http://www.w3.org/2000/svg" xmlns:xlink="http://www.w3.org/1999/xlink" id="svg1872" width="32" height="32" version="1.0"><defs id="defs1874"><linearGradient id="linearGradient3488"><stop style="stop-color:#d88c1d;stop-opacity:1" id="stop3490" offset="0"/><stop style="stop-color:#b34f00;stop-opacity:1" id="stop3492" offset="1"/></linearGradient><linearGradient id="linearGradient3416"><stop style="stop-color:#ffee5c;stop-opacity:1" id="stop3418" offset="0"/><stop style="stop-color:#f57900;stop-opacity:1" id="stop3420" offset="1"/></linearGradient><linearGradient id="linearGradient3619"><stop id="stop3621" offset="0" style="stop-color:#82a02b;stop-opacity:1"/><stop id="stop3623" offset="1" style="stop-color:#e6edab;stop-opacity:1"/></linearGradient><linearGradient id="linearGradient4015"><stop id="stop4017" offset="0" style="stop-color:#82837d;stop-opacity:1"/><stop id="stop4019" offset="1" style="stop-color:#4d4f4c;stop-opacity:1"/></linearGradient><linearGradient id="linearGradient3999"><stop style="stop-color:#b2b6ae;stop-opacity:1" id="stop4001" offset="0"/><stop style="stop-color:#7b7d77;stop-opacity:1" id="stop4003" offset="1"/></linearGradient><radialGradient id="radialGradient2952" cx="605.714" cy="486.648" r="117.143" fx="605.714" fy="486.648" gradientTransform="matrix(-25.4081,0,0,1.969706,15200.99,-872.8854)" gradientUnits="userSpaceOnUse" xlink:href="#linearGradient5060"/><linearGradient id="linearGradient5060"><stop id="stop5062" offset="0" style="stop-color:black;stop-opacity:1"/><stop id="stop5064" offset="1" style="stop-color:black;stop-opacity:0"/></linearGradient><radialGradient id="radialGradient3845" cx="605.714" cy="486.648" r="117.143" fx="605.714" fy="486.648" gradientTransform="matrix(2.540811,0,0,1.969706,-1642.705,-872.8758)" gradientUnits="userSpaceOnUse" xlink:href="#linearGradient5060"/><linearGradient id="linearGradient2949"><stop style="stop-color:white;stop-opacity:1" id="stop2951" offset="0"/><stop style="stop-color:white;stop-opacity:0" id="stop2953" offset="1"/></linearGradient><linearGradient id="linearGradient2886"><stop style="stop-color:#eeeeec;stop-opacity:1" id="stop2888" offset="0"/><stop style="stop-color:#eeeeec;stop-opacity:0" id="stop2890" offset="1"/></linearGradient><linearGradient id="linearGradient3218"><stop id="stop3220" offset="0" style="stop-color:white;stop-opacity:0"/><stop style="stop-color:#204a87;stop-opacity:.0887574" id="stop3222" offset=".5"/><stop id="stop3224" offset="1" style="stop-color:#204a87;stop-opacity:1"/></linearGradient><linearGradient id="linearGradient3212"><stop style="stop-color:#eeeeec;stop-opacity:1" id="stop3214" offset="0"/><stop style="stop-color:#555753;stop-opacity:1" id="stop3216" offset="1"/></linearGradient><linearGradient id="linearGradient2842"><stop id="stop2844" offset="0" style="stop-color:#eeeeec;stop-opacity:1"/><stop id="stop2846" offset="1" style="stop-color:#e7e7e4;stop-opacity:1"/></linearGradient><linearGradient id="linearGradient2760"><stop style="stop-color:white;stop-opacity:1" id="stop2762" offset="0"/><stop style="stop-color:white;stop-opacity:.42352942" id="stop2764" offset="1"/></linearGradient><radialGradient id="radialGradient4060" cx="60.532" cy="24.724" r="10.532" fx="60.532" fy="24.724" gradientTransform="matrix(1,0,0,1.01826,0,-0.451456)" gradientUnits="userSpaceOnUse" xlink:href="#linearGradient3218"/><linearGradient id="linearGradient4070" x1="53.834" x2="56.286" y1="19.829" y2="33.056" gradientUnits="userSpaceOnUse" xlink:href="#linearGradient2949"/><linearGradient id="linearGradient3168" x1="23.484" x2="29.453" y1="20.852" y2="29.202" gradientTransform="matrix(0.629267,0,0,0.612874,-3.597622,0.792992)" gradientUnits="userSpaceOnUse" xlink:href="#linearGradient3999"/><linearGradient id="linearGradient3185" x1="11.469" x2="23.686" y1="7.649" y2="37" gradientTransform="matrix(0.629473,0,0,0.603346,-3.830444,1.44113)" gradientUnits="userSpaceOnUse" xlink:href="#linearGradient2760"/><linearGradient id="linearGradient3191" x1="10.625" x2="15.75" y1="9.375" y2="31" gradientTransform="matrix(0.649318,0,0,0.626026,-4.169186,0.951616)" gradientUnits="userSpaceOnUse" xlink:href="#linearGradient2842"/><linearGradient id="linearGradient3193" x1="25.309" x2="34.195" y1="26.027" y2="36.463" gradientTransform="matrix(0.649318,0,0,0.626026,-4.169186,0.951616)" gradientUnits="userSpaceOnUse" xlink:href="#linearGradient4015"/><linearGradient id="linearGradient3199" x1="20.295" x2="13.144" y1="28.568" y2="14.963" gradientTransform="translate(-6.347442,-4.30929)" gradientUnits="userSpaceOnUse" xlink:href="#linearGradient3619"/><radialGradient id="radialGradient3201" cx="63.729" cy="17.506" r="5.909" fx="63.729" fy="17.506" gradientTransform="matrix(1,0,0,0.994711,0,9.651581e-2)" gradientUnits="userSpaceOnUse" xlink:href="#linearGradient3416"/><linearGradient id="linearGradient3203" x1="60.682" x2="70.961" y1="16.233" y2="24.89" gradientUnits="userSpaceOnUse" xlink:href="#linearGradient3488"/><linearGradient id="linearGradient2036" x1="60.532" x2="59.923" y1="24.186" y2="12.958" gradientTransform="matrix(0.572976,-0.247115,-0.242376,-0.5633,-10.23342,44.38813)" gradientUnits="userSpaceOnUse" xlink:href="#linearGradient2886"/><linearGradient id="linearGradient2047" x1="59.413" x2="60.532" y1="15.436" y2="30.892" gradientUnits="userSpaceOnUse" xlink:href="#linearGradient3212"/><linearGradient id="linearGradient1949" x1="26.021" x2="16.589" y1="28.51" y2="19.179" gradientTransform="matrix(0.610999,0,0,0.587504,-3.271271,1.30502)" gradientUnits="userSpaceOnUse" xlink:href="#linearGradient2760"/></defs><metadata id="metadata1877"/><g id="layer1" style="display:inline"><rect style="fill:url(#linearGradient3191);fill-opacity:1;fill-rule:nonzero;stroke:url(#linearGradient3193);stroke-width:1.00011122;stroke-linecap:round;stroke-linejoin:miter;stroke-miterlimit:4;stroke-dasharray:none;stroke-opacity:1" id="rect2829" width="20.129" height="19.407" x="-1.247" y="5.021" ry="1.604" transform="matrix(0.968554,-0.248802,0.269179,0.96309,0,0)"/><rect style="fill:none;fill-opacity:1;fill-rule:nonzero;stroke:url(#linearGradient3185);stroke-width:1.00014997;stroke-linecap:round;stroke-linejoin:miter;stroke-miterlimit:4;stroke-dasharray:none;stroke-opacity:1" id="rect1873" width="18.255" height="17.497" x="-.368" y="5.966" ry=".8" transform="matrix(0.968957,-0.247227,0.270873,0.962615,0,0)"/><g style="display:inline" id="g3153" transform="matrix(0.630515,0,0,0.611588,1.298232,3.210299)"><rect id="rect3149" width="25" height="17" x="1.153" y="9.191" transform="matrix(0.965926,-0.258819,0.258819,0.965926,0,0)" style="fill:url(#linearGradient3199);fill-opacity:1;fill-rule:nonzero;stroke:none;stroke-width:1;stroke-linecap:round;stroke-linejoin:miter;stroke-miterlimit:4;stroke-dasharray:none;stroke-opacity:1;display:inline"/><path style="fill:#fff;fill-opacity:1;fill-rule:nonzero;stroke:#8e7c87;stroke-width:1.12725163;stroke-linecap:round;stroke-linejoin:round;stroke-miterlimit:4;stroke-dasharray:none;stroke-opacity:1;display:inline" id="path3361" d="M 20.938071,16.824563 C 21.074734,17.36721 22.583288,21.228333 19.352066,21.729826 C 15.888292,22.267411 16.328878,19.244772 16.229619,18.306362 C 15.87734,19.307606 13.41688,22.798752 10.803501,21.43192 C 8.2238999,20.082754 11.160018,16.62789 11.572015,16.436342 C 7.168651,18.652448 5.8710229,16.007019 6.6640254,13.554388 C 7.2357999,11.78598 11.055301,11.977177 11.422041,11.9193 C 10.288023,12.270054 8.4346927,7.9185558 11.96723,7.2184232 C 14.785917,6.6597724 15.936833,8.336874 16.221401,8.9473315 C 16.440653,8.5656595 16.621585,5.0823373 19.20059,5.4621324 C 22.662688,5.9719756 21.376247,9.2318383 20.930881,9.9769952 C 21.621411,8.2537103 24.581608,7.9149861 25.695179,9.8093234 C 27.296537,12.533452 24.458447,13.735865 23.988343,13.576135 C 24.491817,13.376049 27.871475,14.518492 27.034279,16.926756 C 26.407174,18.730673 23.447199,19.245161 20.938071,16.824563 z"/><path style="fill:url(#radialGradient3201);fill-opacity:1;fill-rule:nonzero;stroke:url(#linearGradient3203);stroke-width:1.8144002;stroke-linecap:round;stroke-linejoin:round;stroke-miterlimit:4;stroke-dasharray:none;stroke-opacity:1;display:inline" id="path3358" d="M 69.963846 18.25 A 4.6825957 4.8792539 0 1 1 60.598654,18.25 A 4.6825957 4.8792539 0 1 1 69.963846 18.25 z" transform="matrix(1.107952,0.217564,-0.390759,0.63425,-48.20152,-12.23497)"/></g><rect style="fill:none;fill-opacity:1;fill-rule:nonzero;stroke:url(#linearGradient3168);stroke-width:1.0000577;stroke-linecap:round;stroke-linejoin:miter;stroke-miterlimit:4;stroke-dasharray:none;stroke-opacity:1" id="rect2811" width="15.732" height="10.419" x="1.122" y="9.067" transform="matrix(0.967844,-0.251549,0.266268,0.963899,0,0)"/><rect style="opacity:.3;fill:none;fill-opacity:1;fill-rule:nonzero;stroke:url(#linearGradient1949);stroke-width:1.0001291;stroke-linecap:round;stroke-linejoin:miter;stroke-miterlimit:4;stroke-dasharray:none;stroke-opacity:1" id="rect2906" width="13.881" height="8.482" x="1.999" y="10.032" transform="matrix(0.968739,-0.248081,0.269954,0.962873,0,0)"/></g><g id="layer2" style="display:inline"><g style="opacity:.28730164;display:inline" id="g5022" transform="matrix(8.047074e-3,0,0,8.361828e-3,30.35147,28.26016)"><path id="path5058" d="M -111.45871,-150.67077 C -111.45871,-150.67077 -111.45871,327.66002 -111.45871,327.66002 C 19.386732,328.56047 204.86193,220.49036 204.86185,88.463847 C 204.86185,-43.56269 58.848173,-150.67075 -111.45871,-150.67077 z" style="opacity:.40206185;color:#000;fill:url(#radialGradient3845);fill-opacity:1;fill-rule:nonzero;stroke:none;stroke-width:1;stroke-linecap:round;stroke-linejoin:miter;marker:none;marker-start:none;marker-mid:none;marker-end:none;stroke-miterlimit:4;stroke-dasharray:none;stroke-dashoffset:0;stroke-opacity:1;visibility:visible;display:inline;overflow:visible"/><path style="opacity:.40206185;color:#000;fill:url(#radialGradient2952);fill-opacity:1;fill-rule:nonzero;stroke:none;stroke-width:1;stroke-linecap:round;stroke-linejoin:miter;marker:none;marker-start:none;marker-mid:none;marker-end:none;stroke-miterlimit:4;stroke-dasharray:none;stroke-dashoffset:0;stroke-opacity:1;visibility:visible;display:inline;overflow:visible" id="path5018" d="M -111.45871,-150.68038 C -111.45871,-150.68038 -111.45871,327.65041 -111.45871,327.65041 C -1419.9129,328.55086 -3274.6643,220.48075 -3274.6643,88.454235 C -3274.6643,-43.572302 -1814.5279,-150.68036 -111.45871,-150.68038 z"/></g><path style="fill:#6f7d82;fill-opacity:1;fill-rule:evenodd;stroke:none;stroke-width:1px;stroke-linecap:butt;stroke-linejoin:miter;stroke-opacity:1" id="path4029" d="M 24,22 L 25,21 L 27,23 L 26,24 L 24,22 z"/><path style="opacity:.6;fill:url(#radialGradient4060);fill-opacity:1;fill-rule:nonzero;stroke:none;stroke-width:.88565296;stroke-linecap:round;stroke-linejoin:miter;stroke-miterlimit:4;stroke-dasharray:none;stroke-opacity:1" id="path2982" d="M 71.064232 24.724428 A 10.532116 10.724427 0 1 1 50,24.724428 A 10.532116 10.724427 0 1 1 71.064232 24.724428 z" transform="matrix(0.788045,0,0,0.774764,-29.21443,-3.657558)"/><path style="fill:none;fill-opacity:1;fill-rule:nonzero;stroke:#414340;stroke-width:2.50066781;stroke-linecap:round;stroke-linejoin:miter;stroke-miterlimit:4;stroke-dasharray:none;stroke-opacity:1" id="path2994" d="M 71.064232 24.724428 A 10.532116 10.724427 0 1 1 50,24.724428 A 10.532116 10.724427 0 1 1 71.064232 24.724428 z" transform="matrix(0.807055,0,0,0.792584,-30.35273,-4.09617)"/><path style="opacity:.7;fill:url(#linearGradient2036);fill-opacity:1;fill-rule:nonzero;stroke:none;stroke-width:.88565296;stroke-linecap:round;stroke-linejoin:miter;stroke-miterlimit:4;stroke-opacity:1" id="path1995" d="M 24.492136,12.899773 C 22.5,20 15,10.5 12.422825,18.105074 C 13.85766,21.439744 17.725688,22.980157 21.056819,21.543494 C 24.387949,20.10683 25.926971,16.234444 24.492136,12.899773 z"/><path id="path2944" d="M 54.008136,32.567333 A 9.9629145,10.377243 0 0 1 55.524927,15.753" transform="matrix(0.562934,0.207559,-0.20512,0.549378,-10.50414,-10.67903)" style="opacity:.9;fill:none;fill-opacity:1;fill-rule:nonzero;stroke:url(#linearGradient4070);stroke-width:1.68588805;stroke-linecap:round;stroke-linejoin:miter;stroke-miterlimit:4;stroke-dasharray:none;stroke-opacity:1"/><path id="path3042" d="M 71.064232 24.724428 A 10.532116 10.724427 0 1 1 50,24.724428 A 10.532116 10.724427 0 1 1 71.064232 24.724428 z" transform="matrix(0.759583,0,0,0.74596,-27.47921,-2.943444)" style="opacity:1;fill:none;fill-opacity:1;fill-rule:nonzero;stroke:url(#linearGradient2047);stroke-width:1.3284775;stroke-linecap:round;stroke-linejoin:miter;stroke-miterlimit:4;stroke-dasharray:none;stroke-opacity:1;display:inline"/><path id="path2032" d="M 25.5,24 C 25.484007,23.378321 26.380745,22.543675 27,22.5 C 28.741718,23.773668 30.125134,25.016041 31.5,26.5 C 31.631884,27.9755 30.767766,28.569215 29.5,28.5 C 27.998388,27.120395 26.687736,25.851239 25.5,24 z" style="fill:#c17d11;fill-opacity:1;fill-rule:nonzero;stroke:#8f5902;stroke-width:1.00000012;stroke-linecap:round;stroke-linejoin:round;stroke-miterlimit:4;stroke-opacity:1;display:inline"/><path style="opacity:.3;fill:none;fill-rule:evenodd;stroke:#eeeeec;stroke-width:1px;stroke-linecap:round;stroke-linejoin:miter;stroke-opacity:1" id="path2896" d="M 26.823224,23.566291 C 28.43052,24.780883 29.495441,25.88863 30.602252,26.977903"/></g></svg>