<svg xmlns="http://www.w3.org/2000/svg" xmlns:svg="http://www.w3.org/2000/svg" xmlns:xlink="http://www.w3.org/1999/xlink" id="svg2160" width="22" height="22" version="1.0"><defs id="defs2162"><linearGradient id="linearGradient3252"><stop style="stop-color:#000;stop-opacity:1" id="stop3254" offset="0"/><stop style="stop-color:#000;stop-opacity:0" id="stop3256" offset="1"/></linearGradient><linearGradient id="linearGradient3414"><stop style="stop-color:#fff;stop-opacity:1" id="stop3416" offset="0"/><stop style="stop-color:#d3d7cf;stop-opacity:1" id="stop3418" offset="1"/></linearGradient><linearGradient id="linearGradient3402"><stop id="stop3404" offset="0" style="stop-color:#888a85;stop-opacity:1"/><stop id="stop3406" offset="1" style="stop-color:#888a85;stop-opacity:1"/></linearGradient><linearGradient id="linearGradient3392"><stop style="stop-color:#888a85;stop-opacity:1" id="stop3394" offset="0"/><stop style="stop-color:#888a85;stop-opacity:1" id="stop3396" offset="1"/></linearGradient><linearGradient id="linearGradient3364"><stop style="stop-color:#eeeeec;stop-opacity:1" id="stop3366" offset="0"/><stop style="stop-color:#888a85;stop-opacity:1" id="stop3368" offset="1"/></linearGradient><linearGradient id="linearGradient2472"><stop style="stop-color:#888a85;stop-opacity:1" id="stop2474" offset="0"/><stop style="stop-color:#d3d7cf;stop-opacity:1" id="stop2476" offset="1"/></linearGradient><linearGradient id="linearGradient3860"><stop style="stop-color:#888a85;stop-opacity:1" id="stop3862" offset="0"/><stop style="stop-color:#555753;stop-opacity:1" id="stop3864" offset="1"/></linearGradient><linearGradient id="linearGradient3844"><stop style="stop-color:#eeeeec;stop-opacity:1" id="stop3846" offset="0"/><stop style="stop-color:#eeeeec;stop-opacity:0" id="stop3848" offset="1"/></linearGradient><linearGradient id="linearGradient3850" x1="15.47" x2="47.306" y1="-4.5" y2="-4.5" gradientTransform="matrix(0.4056743,0,0,0.9783807,-1.434046,2.8919026)" gradientUnits="userSpaceOnUse" xlink:href="#linearGradient3844"/><linearGradient id="linearGradient3866" x1="26.357" x2="29" y1="2.571" y2="10.571" gradientTransform="matrix(0.4736842,0,0,0.6666668,-0.105263,-1.1666668)" gradientUnits="userSpaceOnUse" xlink:href="#linearGradient3860"/><linearGradient id="linearGradient2478" x1="11.505" x2="11.505" y1="16.781" y2="18.688" gradientTransform="translate(0,-2)" gradientUnits="userSpaceOnUse" xlink:href="#linearGradient2472"/><linearGradient id="linearGradient3370" x1="11.5" x2="11.5" y1="17.5" y2="16" gradientUnits="userSpaceOnUse" xlink:href="#linearGradient3364"/><linearGradient id="linearGradient3398" x1="13" x2="13" y1="19.967" y2="16.829" gradientUnits="userSpaceOnUse" xlink:href="#linearGradient3392"/><linearGradient id="linearGradient3400" x1="13" x2="13" y1="19.967" y2="16.829" gradientUnits="userSpaceOnUse" xlink:href="#linearGradient3402"/><radialGradient id="radialGradient3420" cx="11" cy="8" r="9" fx="11" fy="8" gradientTransform="matrix(1.6788582,0,0,1.4923184,-7.46744,-3.9385471)" gradientUnits="userSpaceOnUse" xlink:href="#linearGradient3414"/><radialGradient id="radialGradient3332" cx="8.5" cy="20.25" r="3" fx="8.5" fy="20.25" gradientTransform="matrix(1,0,0,0.4166667,0,11.8125)" gradientUnits="userSpaceOnUse" xlink:href="#linearGradient3252"/><radialGradient id="radialGradient3342" cx="8.5" cy="20.25" r="3" fx="8.5" fy="20.25" gradientTransform="matrix(1,0,0,0.4166667,0,11.8125)" gradientUnits="userSpaceOnUse" xlink:href="#linearGradient3252"/><radialGradient id="radialGradient3344" cx="8.5" cy="20.25" r="3" fx="8.5" fy="20.25" gradientTransform="matrix(1,0,0,0.4166667,0,11.8125)" gradientUnits="userSpaceOnUse" xlink:href="#linearGradient3252"/></defs><metadata id="metadata2165"/><g id="layer1"><path style="opacity:.2;fill:url(#radialGradient3332);fill-opacity:1;stroke:none;stroke-width:1;stroke-linecap:round;stroke-linejoin:round;stroke-miterlimit:4;stroke-dasharray:none;stroke-dashoffset:0;stroke-opacity:1" id="path3262" d="M 11.5,20.25 A 3,1.25 0 1 1 5.5,20.25 A 3,1.25 0 1 1 11.5,20.25 z" transform="matrix(3.3333338,0,0,1.6,-17.333338,-12.4)"/><path style="opacity:.3;fill:url(#radialGradient3344);fill-opacity:1;stroke:none;stroke-width:1;stroke-linecap:round;stroke-linejoin:round;stroke-miterlimit:4;stroke-dasharray:none;stroke-dashoffset:0;stroke-opacity:1" id="path3248" d="M 11.5,20.25 A 3,1.25 0 1 1 5.5,20.25 A 3,1.25 0 1 1 11.5,20.25 z" transform="matrix(1.3333333,0,0,0.8,-2.833333,4.3)"/><path style="opacity:.3;fill:url(#radialGradient3342);fill-opacity:1;stroke:none;stroke-width:1;stroke-linecap:round;stroke-linejoin:round;stroke-miterlimit:4;stroke-dasharray:none;stroke-dashoffset:0;stroke-opacity:1" id="path3250" d="M 11.5,20.25 A 3,1.25 0 1 1 5.5,20.25 A 3,1.25 0 1 1 11.5,20.25 z" transform="matrix(1.3333333,0,0,0.8,3.1666666,4.3)"/><rect style="opacity:1;fill:url(#linearGradient2478);fill-opacity:1;stroke:#888a85;stroke-width:1;stroke-opacity:1" id="rect3632" width="1.99" height="5.97" x="10.51" y="12.5" rx=".995" ry=".995"/><path style="fill:none;fill-opacity:1;fill-rule:evenodd;stroke:url(#linearGradient3400);stroke-width:3;stroke-linecap:round;stroke-linejoin:miter;stroke-miterlimit:4;stroke-dasharray:none;stroke-opacity:1" id="path3358" d="M 11.5,17.5 L 14.5,19.5"/><path style="fill:none;fill-opacity:1;fill-rule:evenodd;stroke:url(#linearGradient3398);stroke-width:3;stroke-linecap:round;stroke-linejoin:miter;stroke-miterlimit:4;stroke-dasharray:none;stroke-opacity:1" id="path3354" d="M 11.5,17.5 L 8.5,19.5"/><path style="fill:#eeeeec;fill-rule:evenodd;stroke:#eeeeec;stroke-width:1;stroke-linecap:round;stroke-linejoin:miter;stroke-miterlimit:4;stroke-dasharray:none;stroke-opacity:1" id="path3356" d="M 11.5,17.5 L 8.5,19.5"/><path style="fill:#eeeeec;fill-rule:evenodd;stroke:#eeeeec;stroke-width:1;stroke-linecap:round;stroke-linejoin:miter;stroke-miterlimit:4;stroke-dasharray:none;stroke-opacity:1" id="path3360" d="M 11.5,17.5 L 14.5,19.5"/><path style="opacity:1;fill:#888a85;fill-opacity:1;stroke:none;stroke-width:1;stroke-linecap:round;stroke-linejoin:miter;stroke-miterlimit:4;stroke-dasharray:none;stroke-dashoffset:0;stroke-opacity:1" id="path3408" d="M 9,19.5 A 0.5,0.5 0 1 1 8,19.5 A 0.5,0.5 0 1 1 9,19.5 z" transform="matrix(2.65625,0,0,2.65625,-11.078125,-34.296875)"/><path style="fill:none;fill-opacity:1;fill-rule:evenodd;stroke:url(#linearGradient3370);stroke-width:1px;stroke-linecap:round;stroke-linejoin:miter;stroke-opacity:1" id="path3362" d="M 11.5,17.5 L 11.5,14.5"/><rect style="opacity:1;fill:url(#radialGradient3420);fill-opacity:1;stroke:#babdb6;stroke-width:1;stroke-linecap:round;stroke-linejoin:miter;stroke-miterlimit:4;stroke-dasharray:none;stroke-dashoffset:0;stroke-opacity:1" id="rect3410" width="19" height="15" x="1.5" y=".5" rx="1.875" ry="1.875"/><rect style="opacity:1;fill:none;fill-opacity:1;stroke:#fff;stroke-width:1;stroke-linecap:round;stroke-linejoin:miter;stroke-miterlimit:4;stroke-dasharray:none;stroke-dashoffset:0;stroke-opacity:1" id="rect3412" width="17" height="13" x="2.5" y="1.5" rx=".698" ry=".698"/><path style="opacity:.0900901;fill:#000;fill-opacity:1;stroke:none;stroke-width:.80000001;stroke-linecap:round;stroke-linejoin:round;stroke-miterlimit:4;stroke-dashoffset:0;stroke-opacity:1" id="rect3284" d="M 2,2 L 20,2 L 20,4 L 2,4 L 2,2 z"/><path style="fill:#babdb6;fill-opacity:1;stroke:url(#linearGradient3866);stroke-width:.9999997;stroke-miterlimit:4;stroke-opacity:1" id="rect3827" d="M 1.5,0.49999988 L 20.5,0.49999988 C 21.054,0.49999988 21.5,0.94599993 21.5,1.5 C 21.5,2.0540001 21.054,2.5000001 20.5,2.5000001 L 1.5,2.5000001 C 0.946,2.5000001 0.5,2.0540001 0.5,1.5 C 0.5,0.94599993 0.946,0.49999988 1.5,0.49999988 z"/><rect style="opacity:1;fill:url(#linearGradient3850);fill-opacity:1;stroke:none" id="rect3842" width="17" height="1" x="1" y="-2" rx=".5" ry=".468" transform="scale(1,-1)"/><rect style="opacity:1;fill:#fff;fill-opacity:1;stroke:none" id="rect4198" width="1.438" height="1.438" x=".781" y=".781" rx=".719" ry=".719" transform="matrix(7.3523147e-8,1,1,-1.8380794e-8,0,0)"/><rect style="opacity:1;fill:#fff;fill-opacity:1;stroke:none" id="rect4202" width="1.5" height="1.5" x=".75" y="19.75" rx=".75" ry=".75" transform="matrix(7.3523153e-8,1,1,-1.8380793e-8,0,0)"/><path style="opacity:1;fill:#fff;fill-opacity:1;stroke:none;stroke-width:1;stroke-linecap:round;stroke-linejoin:miter;stroke-miterlimit:4;stroke-dasharray:none;stroke-dashoffset:0;stroke-opacity:1" id="path3372" d="M 9,19.5 A 0.5,0.5 0 1 1 8,19.5 A 0.5,0.5 0 1 1 9,19.5 z"/><path style="opacity:1;fill:#fff;fill-opacity:1;stroke:none;stroke-width:1;stroke-linecap:round;stroke-linejoin:miter;stroke-miterlimit:4;stroke-dasharray:none;stroke-dashoffset:0;stroke-opacity:1" id="path3374" d="M 9,19.5 A 0.5,0.5 0 1 1 8,19.5 A 0.5,0.5 0 1 1 9,19.5 z" transform="translate(6,0)"/><path style="opacity:1;fill:#fff;fill-opacity:1;stroke:none;stroke-width:1;stroke-linecap:round;stroke-linejoin:miter;stroke-miterlimit:4;stroke-dasharray:none;stroke-dashoffset:0;stroke-opacity:1" id="path3376" d="M 9,19.5 A 0.5,0.5 0 1 1 8,19.5 A 0.5,0.5 0 1 1 9,19.5 z" transform="translate(3,-2)"/><path style="fill:#888a85;fill-rule:evenodd;stroke:none;stroke-width:1px;stroke-linecap:butt;stroke-linejoin:miter;stroke-opacity:1" id="path5208" d="M 9,5.0392309 L 9,12.044486 L 15,8 L 9,5.0392309 z"/></g></svg>