<svg xmlns="http://www.w3.org/2000/svg" xmlns:cc="http://web.resource.org/cc/" xmlns:svg="http://www.w3.org/2000/svg" xmlns:xlink="http://www.w3.org/1999/xlink" id="svg1872" width="22" height="22" version="1.0"><defs id="defs1874"><linearGradient id="linearGradient3488"><stop style="stop-color:#d88c1d;stop-opacity:1" id="stop3490" offset="0"/><stop style="stop-color:#b34f00;stop-opacity:1" id="stop3492" offset="1"/></linearGradient><linearGradient id="linearGradient3203" x1="60.682" x2="69.681" y1="16.233" y2="24.037" gradientUnits="userSpaceOnUse" xlink:href="#linearGradient3488"/><linearGradient id="linearGradient3416"><stop style="stop-color:#ffee5c;stop-opacity:1" id="stop3418" offset="0"/><stop style="stop-color:#f57900;stop-opacity:1" id="stop3420" offset="1"/></linearGradient><radialGradient id="radialGradient3201" cx="63.729" cy="17.506" r="5.909" fx="63.729" fy="17.506" gradientTransform="matrix(1,0,0,0.994711,0,9.651581e-2)" gradientUnits="userSpaceOnUse" xlink:href="#linearGradient3416"/><linearGradient id="linearGradient3619"><stop id="stop3621" offset="0" style="stop-color:#82a02b;stop-opacity:1"/><stop id="stop3623" offset="1" style="stop-color:#e6edab;stop-opacity:1"/></linearGradient><linearGradient id="linearGradient2881"><stop style="stop-color:#787b76;stop-opacity:1" id="stop2883" offset="0"/><stop style="stop-color:#2e3436;stop-opacity:1" id="stop2885" offset="1"/></linearGradient><linearGradient id="linearGradient4015"><stop id="stop4017" offset="0" style="stop-color:#767772;stop-opacity:1"/><stop id="stop4019" offset="1" style="stop-color:#4d4f4c;stop-opacity:1"/></linearGradient><radialGradient id="radialGradient2952" cx="605.714" cy="486.648" r="117.143" fx="605.714" fy="486.648" gradientTransform="matrix(-25.4081,0,0,1.969706,15200.99,-872.8854)" gradientUnits="userSpaceOnUse" xlink:href="#linearGradient5060"/><linearGradient id="linearGradient5060"><stop id="stop5062" offset="0" style="stop-color:black;stop-opacity:1"/><stop id="stop5064" offset="1" style="stop-color:black;stop-opacity:0"/></linearGradient><radialGradient id="radialGradient3845" cx="605.714" cy="486.648" r="117.143" fx="605.714" fy="486.648" gradientTransform="matrix(2.540811,0,0,1.969706,-1642.705,-872.8758)" gradientUnits="userSpaceOnUse" xlink:href="#linearGradient5060"/><linearGradient id="linearGradient2949"><stop style="stop-color:white;stop-opacity:1" id="stop2951" offset="0"/><stop style="stop-color:white;stop-opacity:0" id="stop2953" offset="1"/></linearGradient><linearGradient id="linearGradient2886"><stop style="stop-color:#eeeeec;stop-opacity:1" id="stop2888" offset="0"/><stop style="stop-color:#eeeeec;stop-opacity:0" id="stop2890" offset="1"/></linearGradient><linearGradient id="linearGradient3218"><stop id="stop3220" offset="0" style="stop-color:white;stop-opacity:0"/><stop style="stop-color:#204a87;stop-opacity:.0887574" id="stop3222" offset=".5"/><stop id="stop3224" offset="1" style="stop-color:#204a87;stop-opacity:1"/></linearGradient><linearGradient id="linearGradient3212"><stop style="stop-color:#eeeeec;stop-opacity:.32319391" id="stop3214" offset="0"/><stop style="stop-color:#fdfdfd;stop-opacity:1" id="stop3216" offset="1"/></linearGradient><linearGradient id="linearGradient3085"><stop style="stop-color:#2e3436;stop-opacity:1" id="stop3087" offset="0"/><stop style="stop-color:#78878c;stop-opacity:1" id="stop3089" offset="1"/></linearGradient><linearGradient id="linearGradient2842"><stop id="stop2844" offset="0" style="stop-color:#eeeeec;stop-opacity:1"/><stop id="stop2846" offset="1" style="stop-color:#d3d3cd;stop-opacity:1"/></linearGradient><linearGradient id="linearGradient2760"><stop style="stop-color:white;stop-opacity:1" id="stop2762" offset="0"/><stop style="stop-color:white;stop-opacity:.71863121" id="stop2764" offset="1"/></linearGradient><linearGradient id="linearGradient2906" x1="60.532" x2="59.923" y1="24.186" y2="12.958" gradientTransform="matrix(0.431785,-0.183375,-0.18265,-0.418005,-8.57338,33.55397)" gradientUnits="userSpaceOnUse" xlink:href="#linearGradient2886"/><linearGradient id="linearGradient2909" x1=".707" x2="2.232" y1="57.276" y2="57.254" gradientTransform="matrix(0.359255,-0.35965,0.359255,0.35965,-0.850797,-1.379352)" gradientUnits="userSpaceOnUse" xlink:href="#linearGradient3085"/><linearGradient id="linearGradient2914" x1="66.654" x2="55.595" y1="34.204" y2="14.47" gradientUnits="userSpaceOnUse" xlink:href="#linearGradient3212"/><linearGradient id="linearGradient2916" x1="53.834" x2="56.286" y1="19.829" y2="33.056" gradientUnits="userSpaceOnUse" xlink:href="#linearGradient2949"/><linearGradient id="linearGradient2918" x1="59.009" x2="66.46" y1="16.166" y2="34.108" gradientUnits="userSpaceOnUse" xlink:href="#linearGradient2881"/><radialGradient id="radialGradient2920" cx="60.532" cy="24.724" r="10.532" fx="60.532" fy="24.724" gradientTransform="matrix(1,0,0,1.01826,0,-0.451456)" gradientUnits="userSpaceOnUse" xlink:href="#linearGradient3218"/><linearGradient id="linearGradient5284" x1="11.469" x2="23.686" y1="7.649" y2="37" gradientTransform="matrix(0.400824,0,0,0.374346,-2.050827,1.586818)" gradientUnits="userSpaceOnUse" xlink:href="#linearGradient2760"/><linearGradient id="linearGradient5290" x1="10.625" x2="15.75" y1="9.375" y2="31" gradientTransform="matrix(0.434737,0,0,0.411642,-2.677777,0.781875)" gradientUnits="userSpaceOnUse" xlink:href="#linearGradient2842"/><linearGradient id="linearGradient5292" x1="25.309" x2="34.195" y1="26.027" y2="36.463" gradientTransform="matrix(0.434737,0,0,0.411642,-2.677777,0.781875)" gradientUnits="userSpaceOnUse" xlink:href="#linearGradient4015"/><linearGradient id="linearGradient5301" x1="20.295" x2="10.834" y1="28.568" y2="10.468" gradientTransform="matrix(1.095857,0,0,1.128682,-8.437051,-7.032386)" gradientUnits="userSpaceOnUse" xlink:href="#linearGradient3619"/></defs><metadata id="metadata1877"/><g id="layer1" style="display:inline"><rect style="fill:url(#linearGradient5290);fill-opacity:1;fill-rule:nonzero;stroke:url(#linearGradient5292);stroke-width:1.0002476;stroke-linecap:round;stroke-linejoin:miter;stroke-miterlimit:4;stroke-dasharray:none;stroke-opacity:1" id="rect2829" width="13.477" height="12.761" x="-.721" y="3.458" ry="1.055" transform="matrix(0.969782,-0.243975,0.27443,0.961607,0,0)"/><rect style="fill:none;fill-opacity:1;fill-rule:nonzero;stroke:url(#linearGradient5284);stroke-width:1.00038922;stroke-linecap:round;stroke-linejoin:miter;stroke-miterlimit:4;stroke-dasharray:none;stroke-opacity:1" id="rect1873" width="11.624" height="10.856" x=".154" y="4.394" ry=".496" transform="matrix(0.970686,-0.240351,0.278489,0.960439,0,0)"/><g style="display:inline" id="g3153" transform="matrix(0.385315,0,0,0.393164,1.654474,2.670906)"><path style="fill:url(#linearGradient5301);fill-opacity:1;fill-rule:nonzero;stroke:none;stroke-width:1;stroke-linecap:round;stroke-linejoin:miter;stroke-miterlimit:4;stroke-opacity:1;display:inline" id="rect3149" d="M -0.28835253,7.8552217 L 27.057266,8.3365343 L 27.348118,27.686956 L -0.083440221,27.512152 L -0.28835253,7.8552217 z" transform="matrix(0.964055,-0.265702,0.270305,0.962775,0,0)"/><path style="fill:#fff;fill-opacity:1;fill-rule:nonzero;stroke:#8e7c87;stroke-width:2.05539441;stroke-linecap:round;stroke-linejoin:round;stroke-miterlimit:4;stroke-dasharray:none;stroke-opacity:1;display:inline" id="path3361" d="M 17.766051,19.23744 C 17.690536,22.090978 14.588103,23.073666 12.048327,22.655226 C 8.8305204,22.125077 10.055155,18.081715 11.19675,16.693973 C 10.535246,16.704981 5.6753144,18.080707 5.0661589,14.882298 C 4.8350581,13.668889 4.83625,11.310444 5.9854198,10.732093 C 7.6714934,9.8835299 11.066323,10.233057 11.419694,10.706919 C 11.397673,10.55072 8.5754993,7.3627114 9.737329,6.3713406 C 11.306586,5.0323181 15.064267,4.3788707 15.951941,5.3137006 C 17.254026,6.6849577 17.606759,8.3512633 17.663223,8.816752 C 17.893618,8.4580563 17.657227,4.7586862 20.002602,4.5310416 C 23.374533,4.2037584 25.364328,4.7765562 25.718849,5.9326561 C 26.346059,7.9780003 25.602113,9.2451192 22.742169,10.283574 C 26.052509,8.9518821 29.899216,9.6023161 30.052184,12.273308 C 30.379773,17.993397 25.4607,16.301706 23.848666,15.296382 C 24.380495,15.63772 27.19681,16.777538 26.275663,19.254931 C 25.133754,22.777778 18.594829,22.920265 17.766051,19.23744 z"/><path style="fill:url(#radialGradient3201);fill-opacity:1;fill-rule:nonzero;stroke:url(#linearGradient3203);stroke-width:2.47580862;stroke-linecap:round;stroke-linejoin:round;stroke-miterlimit:4;stroke-dasharray:none;stroke-opacity:1;display:inline" id="path3358" d="M 69.050567 18.25 A 3.7693167 4.8792539 0 1 1 61.511933,18.25 A 3.7693167 4.8792539 0 1 1 69.050567 18.25 z" transform="matrix(1.095473,0.607655,-0.644743,0.625415,-41.98124,-37.52792)"/></g></g><g id="layer2" style="display:inline"><g style="opacity:.28730164;display:inline" id="g5022" transform="matrix(6.035307e-3,0,0,6.271702e-3,20.7636,19.94502)"><path id="path5058" d="M -111.45871,-150.67077 C -111.45871,-150.67077 -111.45871,327.66002 -111.45871,327.66002 C 19.386732,328.56047 204.86193,220.49036 204.86185,88.463847 C 204.86185,-43.56269 58.848173,-150.67075 -111.45871,-150.67077 z" style="opacity:.40206185;color:#000;fill:url(#radialGradient3845);fill-opacity:1;fill-rule:nonzero;stroke:none;stroke-width:1;stroke-linecap:round;stroke-linejoin:miter;marker:none;marker-start:none;marker-mid:none;marker-end:none;stroke-miterlimit:4;stroke-dasharray:none;stroke-dashoffset:0;stroke-opacity:1;visibility:visible;display:inline;overflow:visible"/><path style="opacity:.40206185;color:#000;fill:url(#radialGradient2952);fill-opacity:1;fill-rule:nonzero;stroke:none;stroke-width:1;stroke-linecap:round;stroke-linejoin:miter;marker:none;marker-start:none;marker-mid:none;marker-end:none;stroke-miterlimit:4;stroke-dasharray:none;stroke-dashoffset:0;stroke-opacity:1;visibility:visible;display:inline;overflow:visible" id="path5018" d="M -111.45871,-150.68038 C -111.45871,-150.68038 -111.45871,327.65041 -111.45871,327.65041 C -1419.9129,328.55086 -3274.6643,220.48075 -3274.6643,88.454235 C -3274.6643,-43.572302 -1814.5279,-150.68036 -111.45871,-150.68038 z"/></g><path style="opacity:.8;fill:url(#radialGradient2920);fill-opacity:1;fill-rule:nonzero;stroke:none;stroke-width:.88565296;stroke-linecap:round;stroke-linejoin:miter;stroke-miterlimit:4;stroke-dasharray:none;stroke-opacity:1" id="path2982" d="M 71.064232 24.724428 A 10.532116 10.724427 0 1 1 50,24.724428 A 10.532116 10.724427 0 1 1 71.064232 24.724428 z" transform="matrix(0.569686,0,0,0.55947,-21.4843,-1.832571)"/><path style="fill:#6f7d82;fill-opacity:1;fill-rule:evenodd;stroke:none;stroke-width:1px;stroke-linecap:butt;stroke-linejoin:miter;stroke-opacity:1" id="path4029" d="M 16,16 L 17,15 L 18.5,16.5 L 17.5,17.5 L 16,16 z"/><path style="fill:none;fill-opacity:1;fill-rule:nonzero;stroke:url(#linearGradient2918);stroke-width:1.64431727;stroke-linecap:round;stroke-linejoin:miter;stroke-miterlimit:4;stroke-dasharray:none;stroke-opacity:1" id="path2994" d="M 69.443906 24.724428 A 8.9117899 9.1776361 0 1 1 51.620326,24.724428 A 8.9117899 9.1776361 0 1 1 69.443906 24.724428 z" transform="matrix(0.61716,0,0,0.599283,-24.358,-2.816928)"/><path style="opacity:.4;fill:url(#linearGradient2906);fill-opacity:1;fill-rule:nonzero;stroke:none;stroke-width:.88565296;stroke-linecap:round;stroke-linejoin:miter;stroke-miterlimit:4;stroke-opacity:1" id="path1995" d="M 17.595221,10.187612 C 16.093981,15.456431 10.442106,8.4068282 8.4999898,14.050276 C 9.5812577,16.524813 12.496139,17.667897 15.006424,16.601802 C 17.516707,15.535706 18.676489,12.66215 17.595221,10.187612 z"/><path id="path2944" d="M 54.250243,32.778916 A 9.9629145,10.377243 0 0 1 56.010747,15.477335" transform="matrix(0.32838,0.119529,-0.119654,0.316378,-3.919139,-3.046883)" style="opacity:.9;fill:none;fill-opacity:1;fill-rule:nonzero;stroke:url(#linearGradient2916);stroke-width:2.90871835;stroke-linecap:round;stroke-linejoin:miter;stroke-miterlimit:4;stroke-dasharray:none;stroke-opacity:1"/><path style="opacity:.7;fill:none;fill-opacity:1;fill-rule:nonzero;stroke:url(#linearGradient2914);stroke-width:2.33187675;stroke-linecap:round;stroke-linejoin:miter;stroke-miterlimit:4;stroke-dasharray:none;stroke-opacity:1" id="path3042" d="M 71.064232 24.724428 A 10.532116 10.724427 0 1 1 50,24.724428 A 10.532116 10.724427 0 1 1 71.064232 24.724428 z" transform="matrix(0.439137,0,0,0.418781,-13.58189,1.656635)"/><path id="path2163" d="M 17.5,17.5 C 17.315932,16.97894 17.853688,16.376482 18.5,16.5 C 19.651538,17.339018 20.591007,18.022454 21.5,19 C 21.665137,20.010948 20.990629,20.621817 20,20.5 C 19.007209,19.591196 18.285272,18.719489 17.5,17.5 z" style="fill:#c17d11;fill-opacity:1;fill-rule:nonzero;stroke:#8f5902;stroke-width:1.00000036;stroke-linecap:round;stroke-linejoin:round;stroke-miterlimit:4;stroke-opacity:1;display:inline"/><path style="opacity:.3;fill:none;fill-rule:evenodd;stroke:#eeeeec;stroke-width:1.00000036px;stroke-linecap:round;stroke-linejoin:miter;stroke-opacity:1;display:inline" id="path2896" d="M 18.328125,17.203125 C 19.0045,17.661514 20.293289,18.61815 20.84375,19.234375"/></g></svg>