<svg xmlns="http://www.w3.org/2000/svg" xmlns:cc="http://web.resource.org/cc/" xmlns:svg="http://www.w3.org/2000/svg" xmlns:xlink="http://www.w3.org/1999/xlink" id="svg1872" width="16" height="16" version="1.0"><defs id="defs1874"><linearGradient id="linearGradient3699"><stop style="stop-color:#8f5902;stop-opacity:1" id="stop3701" offset="0"/><stop style="stop-color:#a26c14;stop-opacity:1" id="stop3703" offset="1"/></linearGradient><linearGradient id="linearGradient3619"><stop id="stop3621" offset="0" style="stop-color:#667d21;stop-opacity:1"/><stop id="stop3623" offset="1" style="stop-color:#c3d339;stop-opacity:1"/></linearGradient><linearGradient id="linearGradient2945"><stop id="stop2947" offset="0" style="stop-color:white;stop-opacity:1"/><stop id="stop2949" offset="1" style="stop-color:#a8a9a5;stop-opacity:1"/></linearGradient><linearGradient id="linearGradient2881"><stop style="stop-color:#5f615d;stop-opacity:1" id="stop2883" offset="0"/><stop style="stop-color:#373e41;stop-opacity:1" id="stop2885" offset="1"/></linearGradient><linearGradient id="linearGradient2949"><stop style="stop-color:white;stop-opacity:1" id="stop2951" offset="0"/><stop style="stop-color:white;stop-opacity:0" id="stop2953" offset="1"/></linearGradient><linearGradient id="linearGradient3218"><stop id="stop3220" offset="0" style="stop-color:white;stop-opacity:0"/><stop style="stop-color:#204a87;stop-opacity:.0887574" id="stop3222" offset=".5"/><stop id="stop3224" offset="1" style="stop-color:#204a87;stop-opacity:1"/></linearGradient><linearGradient id="linearGradient2842"><stop id="stop2844" offset="0" style="stop-color:white;stop-opacity:1"/><stop id="stop2846" offset="1" style="stop-color:#e2e2df;stop-opacity:1"/></linearGradient><linearGradient id="linearGradient2930" x1="10.625" x2="14.481" y1="9.375" y2="29.564" gradientTransform="matrix(0.323391,-2.964092e-3,6.578876e-3,0.295078,-1.069331,-1.320367)" gradientUnits="userSpaceOnUse" xlink:href="#linearGradient2842"/><radialGradient id="radialGradient2977" cx="60.532" cy="24.724" r="10.532" fx="60.532" fy="24.724" gradientTransform="matrix(0.659992,-3.924745e-7,3.625985e-7,0.608628,20.58139,9.676477)" gradientUnits="userSpaceOnUse" xlink:href="#linearGradient3218"/><linearGradient id="linearGradient2979" x1="59.009" x2="66.46" y1="16.166" y2="34.108" gradientUnits="userSpaceOnUse" xlink:href="#linearGradient2881"/><linearGradient id="linearGradient2983" x1="53.834" x2="56.286" y1="19.829" y2="33.056" gradientUnits="userSpaceOnUse" xlink:href="#linearGradient2949"/><linearGradient id="linearGradient3964" x1="13.721" x2="17.473" y1="28.167" y2="9.428" gradientTransform="matrix(0.285103,-3.41455e-3,2.004028e-3,0.289888,-0.371685,-0.798308)" gradientUnits="userSpaceOnUse" xlink:href="#linearGradient3619"/><linearGradient id="linearGradient3689" x1="16.553" x2="14.613" y1="27.67" y2="4.901" gradientTransform="matrix(0.280451,-1.484523e-2,-6.790933e-3,0.298782,6.285496e-2,-1.18937)" gradientUnits="userSpaceOnUse" xlink:href="#linearGradient2945"/><linearGradient id="linearGradient3705" x1="13.674" x2="14.343" y1="13.898" y2="11.975" gradientUnits="userSpaceOnUse" xlink:href="#linearGradient3699"/></defs><metadata id="metadata1877"/><g id="layer1" style="display:inline"><path id="rect2829" d="M 1.500117,0.500012 L 9.500117,0.500012 C 9.959211,0.4958041 10.490777,1.0811119 10.500117,1.500012 L 10.500117,9.500012 C 10.509456,9.918912 9.959211,10.495804 9.500117,10.500012 L 1.500117,10.500012 C 1.0410231,10.50422 0.50945656,9.918912 0.50011696,9.500012 L 0.50011696,1.500012 C 0.49077746,1.0811119 1.0410231,0.5042199 1.500117,0.500012 z" style="fill:url(#linearGradient2930);fill-opacity:1;fill-rule:nonzero;stroke:#858781;stroke-width:.99999934;stroke-linecap:round;stroke-linejoin:miter;stroke-miterlimit:4;stroke-opacity:1"/><path id="rect2811" d="M 1.500117,2.500012 L 9.500117,2.500012 L 9.500117,8.500012 L 1.500117,8.500012 L 1.500117,2.500012 z" style="fill:none;fill-opacity:1;fill-rule:nonzero;stroke:url(#linearGradient3689);stroke-width:.99999964;stroke-linecap:round;stroke-linejoin:miter;stroke-miterlimit:4;stroke-opacity:1"/><g style="display:inline" id="g3966"><path style="fill:url(#linearGradient3964);fill-opacity:1;fill-rule:nonzero;stroke:none;stroke-width:1;stroke-linecap:round;stroke-linejoin:miter;stroke-miterlimit:4;stroke-opacity:1;display:inline" id="rect3149" d="M 2,3 L 9.0000001,3 L 9.0000001,8 L 2,8 L 2,3 z"/><path id="path3361" d="M 12.549158,23.225127 L 8.7001466,23.225127 L 8.7001466,19.337329 L 12.549158,17.39343 L 10.624652,15.449531 L 4.8511357,15.449531 L 4.8511357,11.561732 L 10.624652,11.561732 L 12.549158,9.6178333 L 8.7001466,7.6739343 L 8.7001466,3.7861361 L 12.549158,3.7861361 L 14.473663,9.6178333 L 16.398169,7.6739343 L 16.398169,3.7861361 L 20.24718,3.7861361 L 20.24718,9.6178333 L 22.171685,9.6178333 L 24.096191,7.6739343 L 27.945202,7.6739343 L 27.945202,11.561732 L 24.096191,11.561732 L 22.171685,13.505631 L 27.945202,15.449531 L 27.945202,19.337329 L 24.096191,19.337329 L 22.171685,17.39343 L 20.24718,17.39343 L 20.24718,23.225127 L 16.398169,23.225127 L 16.398169,19.337329 L 12.549158,19.337329 L 12.549158,23.225127 z" transform="matrix(0.259807,0,0,0.257215,0.739641,2.026149)" style="fill:#fff;fill-opacity:1;fill-rule:nonzero;stroke:none;stroke-width:3.09468126;stroke-linecap:round;stroke-linejoin:round;stroke-miterlimit:4;stroke-dasharray:none;stroke-opacity:1;display:inline"/></g><path style="opacity:1;fill:#fcaf3e;fill-opacity:1;fill-rule:nonzero;stroke:#c2680c;stroke-width:1.00000024;stroke-linecap:round;stroke-linejoin:round;stroke-miterlimit:4;stroke-dasharray:none;stroke-opacity:1" id="path1914" d="M 17 5.5 A 1.5 1 0 1 1 14,5.5 A 1.5 1 0 1 1 17 5.5 z" transform="translate(-10.5,-1.192093e-7)"/></g><g id="layer2" style="display:inline"><g id="g3041"><path id="path2982" d="M 71.064232 24.724428 A 10.532116 10.724427 0 1 1 50,24.724428 A 10.532116 10.724427 0 1 1 71.064232 24.724428 z" transform="matrix(0.420822,0,0,0.419544,-16.97314,-1.872981)" style="opacity:.4;fill:url(#radialGradient2977);fill-opacity:1;fill-rule:nonzero;stroke:none;stroke-width:.88565296;stroke-linecap:round;stroke-linejoin:miter;stroke-miterlimit:4;stroke-dasharray:none;stroke-opacity:1"/><path id="path2994" d="M 69.443906 24.724428 A 8.9117899 9.1776361 0 1 1 51.620326,24.724428 A 8.9117899 9.1776361 0 1 1 69.443906 24.724428 z" transform="matrix(0.448844,0,0,0.43584,-18.66933,-2.275901)" style="fill:none;fill-opacity:1;fill-rule:nonzero;stroke:url(#linearGradient2979);stroke-width:2.26094413;stroke-linecap:round;stroke-linejoin:miter;stroke-miterlimit:4;stroke-dasharray:none;stroke-opacity:1"/><path style="opacity:.8;fill:none;fill-opacity:1;fill-rule:nonzero;stroke:url(#linearGradient2983);stroke-width:3.39020109;stroke-linecap:round;stroke-linejoin:miter;stroke-miterlimit:4;stroke-dasharray:none;stroke-opacity:1" id="path2944" d="M 56.339884,34.138258 A 9.9629145,10.377243 0 0 1 56.783343,15.10982" transform="matrix(0.281466,0.102654,-0.10256,0.271713,-6.001898,-4.431808)"/><path style="fill:#d79b3d;fill-opacity:1;fill-rule:nonzero;stroke:url(#linearGradient3705);stroke-width:1.0000006;stroke-linecap:round;stroke-linejoin:round;stroke-miterlimit:4;stroke-opacity:1;display:inline" id="path2163" d="M 11.5,12.5 L 12.5,11.5 C 13.481798,12.226658 14.724996,13.153365 15.5,14 C 15.5,15.5 15.5,15.5 14,15.5 C 13.153549,14.712901 12.169521,13.556177 11.5,12.5 z"/></g></g></svg>