<svg xmlns="http://www.w3.org/2000/svg" xmlns:cc="http://web.resource.org/cc/" xmlns:svg="http://www.w3.org/2000/svg" xmlns:xlink="http://www.w3.org/1999/xlink" id="svg4948" width="48" height="48" version="1.0"><defs id="defs4950"><linearGradient id="linearGradient6692"><stop style="stop-color:#eeeeec;stop-opacity:1" id="stop6694" offset="0"/><stop style="stop-color:#d3d7cf;stop-opacity:1" id="stop6696" offset="1"/></linearGradient><linearGradient id="linearGradient5573"><stop style="stop-color:#86501b;stop-opacity:1" id="stop5575" offset="0"/><stop style="stop-color:#86501b;stop-opacity:0" id="stop5577" offset="1"/></linearGradient><linearGradient id="linearGradient5579" x1="7.957" x2="7.957" y1="25.369" y2="27.982" gradientTransform="matrix(1.4873087,0,0,1.2541641,1.0351959,4.8125303)" gradientUnits="userSpaceOnUse" xlink:href="#linearGradient5573"/><linearGradient id="linearGradient6698" x1="5.438" x2="19.75" y1="5.5" y2="20.875" gradientUnits="userSpaceOnUse" xlink:href="#linearGradient6692"/><linearGradient id="linearGradient6702" x1="5.438" x2="19.75" y1="5.5" y2="20.875" gradientTransform="matrix(1,0,0,0.996724,22,1.1590899e-2)" gradientUnits="userSpaceOnUse" xlink:href="#linearGradient6692"/><linearGradient id="linearGradient6706" x1="5.438" x2="19.75" y1="5.5" y2="20.875" gradientTransform="matrix(1,0,0,0.996724,22.0625,21.949091)" gradientUnits="userSpaceOnUse" xlink:href="#linearGradient6692"/><linearGradient id="linearGradient6710" x1="5.438" x2="19.75" y1="5.5" y2="20.875" gradientTransform="matrix(1,0,0,0.996724,-1.0105527e-7,21.949091)" gradientUnits="userSpaceOnUse" xlink:href="#linearGradient6692"/></defs><metadata id="metadata4953"/><g id="layer1"><rect style="opacity:1;fill:url(#linearGradient6710);fill-opacity:1;stroke:#888a85;stroke-width:.99999994;stroke-linecap:round;stroke-linejoin:miter;stroke-miterlimit:4;stroke-dasharray:none;stroke-dashoffset:0;stroke-opacity:1" id="rect6708" width="19.024" height="19.016" x="3.476" y="25.476" rx=".893" ry=".893"/><rect style="opacity:1;fill:url(#linearGradient6706);fill-opacity:1;stroke:#888a85;stroke-width:.99999994;stroke-linecap:round;stroke-linejoin:miter;stroke-miterlimit:4;stroke-dasharray:none;stroke-dashoffset:0;stroke-opacity:1" id="rect6704" width="19.024" height="19.016" x="25.538" y="25.476" rx=".893" ry=".893"/><rect style="opacity:1;fill:url(#linearGradient6702);fill-opacity:1;stroke:#888a85;stroke-width:.99999994;stroke-linecap:round;stroke-linejoin:miter;stroke-miterlimit:4;stroke-dasharray:none;stroke-dashoffset:0;stroke-opacity:1" id="rect6700" width="19.024" height="19.016" x="25.476" y="3.538" rx=".893" ry=".893"/><rect style="opacity:1;fill:url(#linearGradient6698);fill-opacity:1;stroke:#888a85;stroke-width:1;stroke-linecap:round;stroke-linejoin:miter;stroke-miterlimit:4;stroke-dasharray:none;stroke-dashoffset:0;stroke-opacity:1" id="rect4968" width="19.024" height="19.078" x="3.476" y="3.538" rx=".893" ry=".893"/><rect style="opacity:1;fill:#b5a184;fill-opacity:1;stroke:#555753;stroke-width:1;stroke-linecap:round;stroke-linejoin:miter;stroke-miterlimit:4;stroke-dasharray:none;stroke-dashoffset:0;stroke-opacity:1" id="rect5553" width="13.058" height="11.06" x="28.462" y="7.5" rx="0" ry="0"/><rect style="opacity:1;fill:#7590b7;fill-opacity:1;stroke:#374762;stroke-width:.99999976;stroke-linecap:round;stroke-linejoin:miter;stroke-miterlimit:4;stroke-dasharray:none;stroke-dashoffset:0;stroke-opacity:1" id="rect5555" width="13.011" height="11.056" x="6.5" y="7.533" rx="0" ry="0"/><rect style="opacity:1;fill:#b5a184;fill-opacity:1;stroke:#555753;stroke-width:.99999994;stroke-linecap:round;stroke-linejoin:miter;stroke-miterlimit:4;stroke-dasharray:none;stroke-dashoffset:0;stroke-opacity:1" id="rect5557" width="12.971" height="10.979" x="28.56" y="29.5" rx="0" ry="0"/><rect style="opacity:1;fill:#c07837;fill-opacity:1;stroke:#784a21;stroke-width:1.00000024;stroke-linecap:round;stroke-linejoin:miter;stroke-miterlimit:4;stroke-dasharray:none;stroke-dashoffset:0;stroke-opacity:1" id="rect5559" width="12.978" height="10.927" x="6.588" y="29.573" rx="0" ry="0"/><rect style="opacity:1;fill:#48638a;fill-opacity:1;stroke:none;stroke-width:1;stroke-linecap:round;stroke-linejoin:miter;stroke-miterlimit:4;stroke-dasharray:none;stroke-dashoffset:0;stroke-opacity:1" id="rect5561" width="12.052" height="5.054" x="6.942" y="12.994"/><rect style="opacity:1;fill:url(#linearGradient5579);fill-opacity:1;stroke:none;stroke-width:1;stroke-linecap:round;stroke-linejoin:miter;stroke-miterlimit:4;stroke-dasharray:none;stroke-dashoffset:0;stroke-opacity:1" id="rect5565" width="12.153" height="4.928" x="6.879" y="34.978"/><path style="opacity:1;fill:#edd400;fill-opacity:1;stroke:none;stroke-width:1;stroke-linecap:round;stroke-linejoin:miter;stroke-miterlimit:4;stroke-dasharray:none;stroke-dashoffset:0;stroke-opacity:1" id="path5567" d="M 23.490656,7.6252861 A 1.3576589,1.3892324 0 1 1 20.775339,7.6252861 A 1.3576589,1.3892324 0 1 1 23.490656,7.6252861 z" transform="matrix(1.5100728,0,0,1.4442485,-1.4286442,1.1310799e-2)"/><path style="opacity:1;fill:#eeeeec;fill-opacity:1;stroke:none;stroke-width:1;stroke-linecap:round;stroke-linejoin:miter;stroke-miterlimit:4;stroke-dasharray:none;stroke-dashoffset:0;stroke-opacity:1" id="path5571" d="M 23.490656,7.6252861 A 1.3576589,1.3892324 0 1 1 20.775339,7.6252861 A 1.3576589,1.3892324 0 1 1 23.490656,7.6252861 z" transform="matrix(1.5100728,0,0,1.4124366,-1.3548669,22.233233)"/><rect style="opacity:1;fill:#83352b;fill-opacity:1;stroke:none;stroke-width:1;stroke-linecap:round;stroke-linejoin:miter;stroke-miterlimit:4;stroke-dasharray:none;stroke-dashoffset:0;stroke-opacity:1" id="rect4964" width="12.115" height="1.867" x="28.885" y="38.007"/><rect style="opacity:1;fill:#83352b;fill-opacity:1;stroke:none;stroke-width:1;stroke-linecap:round;stroke-linejoin:miter;stroke-miterlimit:4;stroke-dasharray:none;stroke-dashoffset:0;stroke-opacity:1" id="rect4966" width="12.115" height="2.221" x="29" y="15.896"/><rect style="opacity:1;fill:none;fill-opacity:1;stroke:#fff;stroke-width:1.0000002400000001;stroke-linecap:round;stroke-linejoin:miter;stroke-miterlimit:4;stroke-dasharray:none;stroke-dashoffset:0;stroke-opacity:1" id="rect4997" width="16.903" height="16.957" x="4.587" y="4.583" rx="0" ry="0"/><rect style="opacity:1;fill:none;fill-opacity:1;stroke:#fff;stroke-width:1.00000024;stroke-linecap:round;stroke-linejoin:miter;stroke-miterlimit:4;stroke-dasharray:none;stroke-dashoffset:0;stroke-opacity:1" id="rect5576" width="16.903" height="16.957" x="26.535" y="4.621" rx="0" ry="0"/><rect style="opacity:1;fill:none;fill-opacity:1;stroke:#fff;stroke-width:1.00000024;stroke-linecap:round;stroke-linejoin:miter;stroke-miterlimit:4;stroke-dasharray:none;stroke-dashoffset:0;stroke-opacity:1" id="rect5578" width="16.903" height="16.957" x="26.576" y="26.516" rx="0" ry="0"/><rect style="opacity:1;fill:none;fill-opacity:1;stroke:#fff;stroke-width:1.00000024;stroke-linecap:round;stroke-linejoin:miter;stroke-miterlimit:4;stroke-dasharray:none;stroke-dashoffset:0;stroke-opacity:1" id="rect5580" width="16.903" height="16.931" x="4.6" y="26.538" rx="0" ry="0"/><path style="fill:#6c4015;fill-opacity:1;fill-rule:evenodd;stroke:none;stroke-width:1px;stroke-linecap:butt;stroke-linejoin:miter;stroke-opacity:1" id="path5967" d="M 11.021924,34.96875 L 14.96875,34.96875 L 12.953125,32.953125 L 11.021924,34.96875 z"/><path style="fill:#86501b;fill-opacity:1;fill-rule:evenodd;stroke:none;stroke-width:1px;stroke-linecap:butt;stroke-linejoin:miter;stroke-opacity:1" id="path5965" d="M 13,35 L 18.84375,35 L 15.859375,32.015625 L 13,35 z"/><path style="opacity:1;fill:#eeeeec;fill-opacity:1;stroke:none;stroke-width:1;stroke-linecap:round;stroke-linejoin:miter;stroke-miterlimit:4;stroke-dasharray:none;stroke-dashoffset:0;stroke-opacity:1" id="path5971" d="M 23.490656,7.6252861 A 1.3576589,1.3892324 0 1 1 20.775339,7.6252861 A 1.3576589,1.3892324 0 1 1 23.490656,7.6252861 z" transform="matrix(0.7278205,0,0,0.680762,-6.0010955,6.7820924)"/><path style="fill:#6c4015;fill-opacity:1;fill-rule:evenodd;stroke:none;stroke-width:1px;stroke-linecap:butt;stroke-linejoin:miter;stroke-opacity:1" id="path6283" d="M 36.228174,15.882098 L 36.979475,13.514064 L 34.913397,10.332019 L 37.1673,12.47805 L 37.355125,9.8140106 L 35.852524,9 L 37.824688,9.5180071 L 38.388164,11.294032 L 40.923804,10.036014 L 38.294251,12.626052 L 38.294251,15.882098 L 36.228174,15.882098 z"/><path style="fill:#2e3436;fill-opacity:1;fill-rule:evenodd;stroke:none;stroke-width:1px;stroke-linecap:butt;stroke-linejoin:miter;stroke-opacity:1" id="path6285" d="M 36.273223,38 L 37.024524,35.597945 L 34.958446,32.370185 L 37.212349,34.547047 L 37.400174,31.844735 L 35.897573,31.019029 L 37.869737,31.544479 L 38.433213,33.346019 L 40.968853,32.069928 L 38.3393,34.697175 L 38.3393,38 L 36.273223,38 z"/></g></svg>