<svg xmlns="http://www.w3.org/2000/svg" xmlns:svg="http://www.w3.org/2000/svg" xmlns:xlink="http://www.w3.org/1999/xlink" id="svg2160" width="48" height="48" version="1.0"><defs id="defs2162"><linearGradient id="linearGradient3926"><stop style="stop-color:#000;stop-opacity:1" id="stop3928" offset="0"/><stop style="stop-color:#000;stop-opacity:0" id="stop3930" offset="1"/></linearGradient><linearGradient id="linearGradient3832"><stop style="stop-color:#fff;stop-opacity:1" id="stop3834" offset="0"/><stop id="stop3840" offset=".674" style="stop-color:#fff;stop-opacity:1"/><stop style="stop-color:#eeeeec;stop-opacity:1" id="stop3836" offset="1"/></linearGradient><linearGradient id="linearGradient3448"><stop style="stop-color:#f57900;stop-opacity:1" id="stop3450" offset="0"/><stop style="stop-color:#fcaf3e;stop-opacity:1" id="stop3452" offset="1"/></linearGradient><linearGradient id="linearGradient3359"><stop style="stop-color:#000;stop-opacity:1" id="stop3361" offset="0"/><stop style="stop-color:#000;stop-opacity:0" id="stop3363" offset="1"/></linearGradient><linearGradient id="linearGradient3269"><stop style="stop-color:#fff;stop-opacity:1" id="stop3271" offset="0"/><stop style="stop-color:#fff;stop-opacity:0" id="stop3273" offset="1"/></linearGradient><linearGradient id="linearGradient3253"><stop style="stop-color:#888a85;stop-opacity:1" id="stop3255" offset="0"/><stop style="stop-color:#d3d7cf;stop-opacity:1" id="stop3257" offset="1"/></linearGradient><linearGradient id="linearGradient3363"><stop style="stop-color:#fff;stop-opacity:1" id="stop3365" offset="0"/><stop style="stop-color:#eeeeec;stop-opacity:0" id="stop3367" offset="1"/></linearGradient><linearGradient id="linearGradient3860"><stop style="stop-color:#888a85;stop-opacity:1" id="stop3862" offset="0"/><stop style="stop-color:#555753;stop-opacity:1" id="stop3864" offset="1"/></linearGradient><linearGradient id="linearGradient3844"><stop style="stop-color:#eeeeec;stop-opacity:1" id="stop3846" offset="0"/><stop style="stop-color:#eeeeec;stop-opacity:0" id="stop3848" offset="1"/></linearGradient><linearGradient id="linearGradient3780"><stop style="stop-color:#fff;stop-opacity:1" id="stop3782" offset="0"/><stop style="stop-color:#fff;stop-opacity:0" id="stop3784" offset="1"/></linearGradient><linearGradient id="linearGradient3688"><stop id="stop3690" offset="0" style="stop-color:black;stop-opacity:1"/><stop id="stop3692" offset="1" style="stop-color:black;stop-opacity:0"/></linearGradient><linearGradient id="linearGradient3702"><stop id="stop3704" offset="0" style="stop-color:black;stop-opacity:0"/><stop style="stop-color:black;stop-opacity:1" id="stop3710" offset=".5"/><stop id="stop3706" offset="1" style="stop-color:black;stop-opacity:0"/></linearGradient><radialGradient id="radialGradient3095" cx="4.993" cy="43.5" r="2.5" fx="4.993" fy="43.5" gradientTransform="matrix(2.003784,0,0,1.4,27.98813,-17.4)" gradientUnits="userSpaceOnUse" xlink:href="#linearGradient3688"/><radialGradient id="radialGradient3097" cx="4.993" cy="43.5" r="2.5" fx="4.993" fy="43.5" gradientTransform="matrix(2.003784,0,0,1.4,-20.01187,-104.4)" gradientUnits="userSpaceOnUse" xlink:href="#linearGradient3688"/><linearGradient id="linearGradient3099" x1="25.058" x2="25.058" y1="47.028" y2="39.999" gradientUnits="userSpaceOnUse" xlink:href="#linearGradient3702"/><linearGradient id="linearGradient3966" x1="14.548" x2="15.581" y1="23.128" y2="26.867" gradientTransform="matrix(-1.2704924,0,0,-1.2704925,-50.516555,48.821273)" gradientUnits="userSpaceOnUse" xlink:href="#linearGradient3269"/><linearGradient id="linearGradient3977" x1="15.47" x2="43" y1="-4.5" y2="-4.5" gradientTransform="matrix(0.972973,0,0,1,-88.837838,-1)" gradientUnits="userSpaceOnUse" xlink:href="#linearGradient3844"/><linearGradient id="linearGradient3980" x1="26.357" x2="29" y1="2.571" y2="10.571" gradientTransform="translate(-90,2)" gradientUnits="userSpaceOnUse" xlink:href="#linearGradient3860"/><radialGradient id="radialGradient3985" cx="-65.5" cy="18.5" r="18.5" fx="-65.5" fy="18.5" gradientTransform="matrix(1.041059,0,0,0.815965,2.689362,5.4046471)" gradientUnits="userSpaceOnUse" xlink:href="#linearGradient3832"/><linearGradient id="linearGradient3990" x1="20.135" x2="13.636" y1="29.677" y2="17.023" gradientUnits="userSpaceOnUse" xlink:href="#linearGradient3780"/><linearGradient id="linearGradient3992" x1="17.697" x2="14.499" y1="29.966" y2="20.717" gradientUnits="userSpaceOnUse" xlink:href="#linearGradient3448"/><radialGradient id="radialGradient4157" cx="24.5" cy="43" r="9.5" fx="24.5" fy="43" gradientTransform="matrix(1,0,0,0.3157895,0,29.421053)" gradientUnits="userSpaceOnUse" xlink:href="#linearGradient3926"/><linearGradient id="linearGradient4159" x1="-25.942" x2="-25.942" y1="42.407" y2="45" gradientTransform="translate(90,-1)" gradientUnits="userSpaceOnUse" xlink:href="#linearGradient3253"/><linearGradient id="linearGradient4161" x1="24.5" x2="24.5" y1="34" y2="35" gradientTransform="translate(-89,2)" gradientUnits="userSpaceOnUse" xlink:href="#linearGradient3359"/><linearGradient id="linearGradient4163" x1="24.857" x2="25.5" y1="39.5" y2="40" gradientTransform="translate(-69,-4)" gradientUnits="userSpaceOnUse" xlink:href="#linearGradient3363"/></defs><metadata id="metadata2165"/><g id="layer1"><g id="g3075" transform="matrix(1.1999995,0,0,0.7777773,-4.8,11.944489)" style="opacity:.13963964;display:inline"><g style="opacity:.4" id="g3077" transform="matrix(1.052632,0,0,1.285713,-1.263158,-13.42854)"><rect style="opacity:1;fill:url(#radialGradient3095);fill-opacity:1;stroke:none;stroke-width:1;stroke-linecap:round;stroke-linejoin:miter;stroke-miterlimit:4;stroke-dasharray:none;stroke-opacity:1" id="rect3079" width="5" height="7" x="38" y="40"/><rect style="opacity:1;fill:url(#radialGradient3097);fill-opacity:1;stroke:none;stroke-width:1;stroke-linecap:round;stroke-linejoin:miter;stroke-miterlimit:4;stroke-dasharray:none;stroke-opacity:1" id="rect3081" width="5" height="7" x="-10" y="-47" transform="scale(-1,-1)"/><rect style="opacity:1;fill:url(#linearGradient3099);fill-opacity:1;stroke:none;stroke-width:1;stroke-linecap:round;stroke-linejoin:miter;stroke-miterlimit:4;stroke-dasharray:none;stroke-opacity:1" id="rect3083" width="28" height="7" x="10" y="40"/></g></g><g id="g4142" transform="translate(90,0)"><path id="path3924" d="M 34,43 A 9.5,3 0 1 1 15,43 A 9.5,3 0 1 1 34,43 z" transform="matrix(1,0,0,0.8333338,-89,7.1666452)" style="opacity:.2837838;fill:url(#radialGradient4157);fill-opacity:1;stroke:none;stroke-width:1;stroke-linecap:round;stroke-linejoin:round;stroke-miterlimit:4;stroke-dasharray:none;stroke-dashoffset:0;stroke-opacity:1"/><rect id="rect2466" width="2" height="9" x="63.5" y="34.5" rx="1" ry="1" transform="scale(-1,1)" style="fill:url(#linearGradient4159);fill-opacity:1;stroke:#888a85;stroke-width:.99999994;stroke-miterlimit:4;stroke-dasharray:none;stroke-opacity:1"/><rect style="opacity:1;fill:#d3d7cf;fill-opacity:1;stroke:#999;stroke-width:.99999994;stroke-miterlimit:4;stroke-dasharray:none;stroke-opacity:1" id="rect2472" width="2" height="12.889" x="63.5" y="27.611" rx="1" ry="1.432" transform="scale(-1,1)"/><g id="g3125" transform="translate(-21,4)"><path style="fill:#d3d7cf;fill-rule:evenodd;stroke:#888a85;stroke-width:3;stroke-linecap:round;stroke-linejoin:miter;stroke-miterlimit:4;stroke-dasharray:none;stroke-opacity:1" id="path3107" d="M -49.5,39.5 L -43.5,36"/><path style="fill:#d3d7cf;fill-rule:evenodd;stroke:#888a85;stroke-width:3;stroke-linecap:round;stroke-linejoin:miter;stroke-miterlimit:4;stroke-dasharray:none;stroke-opacity:1" id="path3109" d="M -37.5,39.5 L -43.5,36"/><path style="fill:#d3d7cf;fill-rule:evenodd;stroke:#d3d7cf;stroke-width:1px;stroke-linecap:round;stroke-linejoin:miter;stroke-opacity:1" id="path3111" d="M -49.5,39.5 L -43.5,36"/><path style="fill:#d3d7cf;fill-rule:evenodd;stroke:#d3d7cf;stroke-width:1px;stroke-linecap:round;stroke-linejoin:miter;stroke-opacity:1" id="path3113" d="M -37.5,39.5 L -43.5,36"/><rect style="fill:#d3d7cf;fill-opacity:1;stroke:#777974;stroke-width:1;stroke-miterlimit:4;stroke-dasharray:none;stroke-opacity:1" id="rect3115" width="4" height="3" x="-45.5" y="34.5" rx="1.5" ry="1.5"/><path style="fill:#fff;fill-opacity:1;stroke:none;stroke-width:1.58113861;stroke-miterlimit:4;stroke-dasharray:none;stroke-opacity:1" id="path3119" d="M 21.428572,44.67857 A 1.25,0.96428573 0 1 1 18.928572,44.67857 A 1.25,0.96428573 0 1 1 21.428572,44.67857 z" transform="matrix(0.5767767,0,0,0.7476738,-61.13853,6.0950058)"/><rect style="fill:url(#linearGradient4163);fill-opacity:1;stroke:none" id="rect3121" width="3" height="2" x="-45" y="35" rx="1.125" ry="1"/></g></g><path style="fill:#fff;fill-opacity:1;stroke:none;stroke-width:1.58113861;stroke-miterlimit:4;stroke-dasharray:none;stroke-opacity:1" id="path4170" d="M 21.428572,44.67857 A 1.25,0.96428573 0 1 1 18.928572,44.67857 A 1.25,0.96428573 0 1 1 21.428572,44.67857 z" transform="matrix(0.5767767,0,0,0.7476738,19.86147,10.095006)"/><g id="g4173" transform="translate(90,0)"><rect id="rect2484" width="38" height="28" x="-84.5" y="6.5" rx="1.02" ry="1.057" style="fill:url(#radialGradient3985);fill-opacity:1;stroke:#babdb6;stroke-width:1;stroke-miterlimit:4;stroke-dasharray:none;stroke-opacity:1"/><path id="path2488" d="M -82.59375,7.4999999 C -83.123321,7.4999999 -83.5,7.7440554 -83.5,8.0871703 L -83.5,32.829314 C -83.5,33.172429 -83.123321,33.416484 -82.59375,33.416484 L -48.40625,33.416484 C -47.87668,33.416484 -47.5,33.172428 -47.5,32.829314 L -47.5,8.0871703 C -47.5,7.7440557 -47.876682,7.4999999 -48.40625,7.4999999 L -82.59375,7.4999999 z" style="fill:none;fill-opacity:1;stroke:#fff;stroke-width:1;stroke-miterlimit:4;stroke-opacity:1"/><rect id="rect2490" width="39" height="2" x="-85" y="7" style="opacity:.11711713;fill:#000;fill-opacity:1;stroke:none;stroke-width:.80000001;stroke-linecap:round;stroke-linejoin:round;stroke-miterlimit:4;stroke-dasharray:none;stroke-dashoffset:0;stroke-opacity:1"/><rect id="rect2492" width="40" height="3" x="-85.5" y="4.5" rx="1.583" ry="1.5" style="fill:#babdb6;fill-opacity:1;stroke:url(#linearGradient3980);stroke-width:.99999982;stroke-miterlimit:4;stroke-dasharray:none;stroke-opacity:1"/><rect id="rect2494" width="37" height="1" x="-84" y="-6" rx=".486" ry=".5" transform="scale(1,-1)" style="fill:url(#linearGradient3977);fill-opacity:1;stroke:none;stroke-width:1;stroke-miterlimit:4;stroke-dasharray:none;stroke-opacity:1"/><rect id="rect2496" width="2" height="2" x="5" y="-85" rx="1" ry="1" transform="matrix(7.3523151e-8,1,1,-1.8380792e-8,0,0)" style="fill:#fff;fill-opacity:1;stroke:none"/><rect id="rect2498" width="2" height="2" x="5" y="-48" rx="1" ry="1" transform="matrix(7.3523171e-8,1,1,-1.8380787e-8,0,0)" style="fill:#fff;fill-opacity:1;stroke:none;stroke-width:1;stroke-miterlimit:4;stroke-dasharray:none;stroke-opacity:1"/><rect style="opacity:.11711713;fill:url(#linearGradient4161);fill-opacity:1;stroke:none;stroke-width:.80000001;stroke-linecap:round;stroke-linejoin:round;stroke-miterlimit:4;stroke-dasharray:none;stroke-dashoffset:0;stroke-opacity:1" id="rect2482" width="3" height="2" x="-66" y="35"/><path style="fill:#888a85;fill-rule:evenodd;stroke:none;stroke-width:1px;stroke-linecap:butt;stroke-linejoin:miter;stroke-opacity:1" id="path5208" d="M -70,13 L -70,27 L -58,19.972431 L -70,13 z"/></g></g></svg>